HIERARCHY
ROOT Hips
{
	OFFSET 0.000000 100.481300 0.000000
	CHANNELS 6 Xposition Yposition Zposition Xrotation Yrotation Zrotation
	JOINT Spine
	{
		OFFSET -0.279200 12.230698 -2.892100
		CHANNELS 3 Xrotation Yrotation Zrotation
		JOINT Spine1
		{
			OFFSET -0.325700 14.269203 -3.374200
			CHANNELS 3 Xrotation Yrotation Zrotation
			JOINT Spine2
			{
				OFFSET -0.372300 16.307602 -0.352600
				CHANNELS 3 Xrotation Yrotation Zrotation
				JOINT Neck
				{
					OFFSET -0.418800 17.814194 8.416900
					CHANNELS 3 Xrotation Yrotation Zrotation
					JOINT Head
					{
						OFFSET 0.000000 7.031097 3.806800
						CHANNELS 3 Xrotation Yrotation Zrotation
						JOINT HeadTop_End
						{
							OFFSET 0.000000 24.646606 12.978600
							CHANNELS 3 Xrotation Yrotation Zrotation
							End Site
							{
								OFFSET 0.000000 27.854965 0.000000
							}
						}
					}
				}
				JOINT LeftShoulder
				{
					OFFSET 16.952999 14.495407 -7.737500
					CHANNELS 3 Xrotation Yrotation Zrotation
					JOINT LeftArm
					{
						OFFSET 9.308998 -2.777710 0.208600
						CHANNELS 3 Xrotation Yrotation Zrotation
						JOINT LeftForeArm
						{
							OFFSET 29.972298 0.000000 0.000000
							CHANNELS 3 Xrotation Yrotation Zrotation
							JOINT LeftHand
							{
								OFFSET 26.026505 0.000000 0.000000
								CHANNELS 3 Xrotation Yrotation Zrotation
								JOINT LeftHandThumb1
								{
									OFFSET 12.240501 -7.147949 9.207150
									CHANNELS 3 Xrotation Yrotation Zrotation
									JOINT LeftHandThumb2
									{
										OFFSET 4.138618 -2.389435 2.389433
										CHANNELS 3 Xrotation Yrotation Zrotation
										JOINT LeftHandThumb3
										{
											OFFSET 2.726913 -1.574387 1.574386
											CHANNELS 3 Xrotation Yrotation Zrotation
											JOINT LeftHandThumb4
											{
												OFFSET 3.941010 -2.275345 2.275342
												CHANNELS 3 Xrotation Yrotation Zrotation
												End Site
												{
													OFFSET -0.005798 5.087799 0.009903
												}
											}
										}
									}
								}
								JOINT LeftHandIndex1
								{
									OFFSET 24.424698 -1.985611 5.953459
									CHANNELS 3 Xrotation Yrotation Zrotation
									JOINT LeftHandIndex2
									{
										OFFSET 6.426697 0.000000 0.000000
										CHANNELS 3 Xrotation Yrotation Zrotation
										JOINT LeftHandIndex3
										{
											OFFSET 5.337898 0.000000 0.000000
											CHANNELS 3 Xrotation Yrotation Zrotation
											JOINT LeftHandIndex4
											{
												OFFSET 4.409401 0.000000 0.000000
												CHANNELS 3 Xrotation Yrotation Zrotation
												End Site
												{
													OFFSET 0.000000 4.409363 0.014373
												}
											}
										}
									}
								}
								JOINT LeftHandMiddle1
								{
									OFFSET 23.810104 0.000000 0.000000
									CHANNELS 3 Xrotation Yrotation Zrotation
									JOINT LeftHandMiddle2
									{
										OFFSET 7.176498 0.000000 0.000000
										CHANNELS 3 Xrotation Yrotation Zrotation
										JOINT LeftHandMiddle3
										{
											OFFSET 6.774902 0.000000 0.000000
											CHANNELS 3 Xrotation Yrotation Zrotation
											JOINT LeftHandMiddle4
											{
												OFFSET 5.403328 0.000000 0.000000
												CHANNELS 3 Xrotation Yrotation Zrotation
												End Site
												{
													OFFSET -0.027702 5.403244 0.017414
												}
											}
										}
									}
								}
								JOINT LeftHandRing1
								{
									OFFSET 22.908401 -0.839279 -6.020567
									CHANNELS 3 Xrotation Yrotation Zrotation
									JOINT LeftHandRing2
									{
										OFFSET 6.337502 0.000000 0.000000
										CHANNELS 3 Xrotation Yrotation Zrotation
										JOINT LeftHandRing3
										{
											OFFSET 5.779297 0.000000 0.000000
											CHANNELS 3 Xrotation Yrotation Zrotation
											JOINT LeftHandRing4
											{
												OFFSET 4.965698 0.000000 0.000000
												CHANNELS 3 Xrotation Yrotation Zrotation
												End Site
												{
													OFFSET 0.000000 4.965668 0.016186
												}
											}
										}
									}
								}
								JOINT LeftHandPinky1
								{
									OFFSET 20.037003 -1.530319 -10.950146
									CHANNELS 3 Xrotation Yrotation Zrotation
									JOINT LeftHandPinky2
									{
										OFFSET 5.254700 0.000000 0.000000
										CHANNELS 3 Xrotation Yrotation Zrotation
										JOINT LeftHandPinky3
										{
											OFFSET 4.810204 0.000000 0.000000
											CHANNELS 3 Xrotation Yrotation Zrotation
											JOINT LeftHandPinky4
											{
												OFFSET 3.647202 0.000000 0.000000
												CHANNELS 3 Xrotation Yrotation Zrotation
												End Site
												{
													OFFSET 0.000000 3.647186 0.011889
												}
											}
										}
									}
								}
							}
						}
					}
				}
				JOINT RightShoulder
				{
					OFFSET -15.141001 14.495407 -7.737500
					CHANNELS 3 Xrotation Yrotation Zrotation
					JOINT RightArm
					{
						OFFSET -9.308998 -2.777710 0.208500
						CHANNELS 3 Xrotation Yrotation Zrotation
						JOINT RightForeArm
						{
							OFFSET -29.972300 0.000000 0.000000
							CHANNELS 3 Xrotation Yrotation Zrotation
							JOINT RightHand
							{
								OFFSET -26.026505 0.000000 0.000000
								CHANNELS 3 Xrotation Yrotation Zrotation
								JOINT RightHandThumb1
								{
									OFFSET -12.240601 -7.148026 9.207092
									CHANNELS 3 Xrotation Yrotation Zrotation
									JOINT RightHandThumb2
									{
										OFFSET -4.138618 -2.389435 2.389433
										CHANNELS 3 Xrotation Yrotation Zrotation
										JOINT RightHandThumb3
										{
											OFFSET -2.726974 -1.574417 1.574421
											CHANNELS 3 Xrotation Yrotation Zrotation
											JOINT RightHandThumb4
											{
												OFFSET -3.941010 -2.275345 2.275343
												CHANNELS 3 Xrotation Yrotation Zrotation
												End Site
												{
													OFFSET 0.005814 5.087799 0.009927
												}
											}
										}
									}
								}
								JOINT RightHandIndex1
								{
									OFFSET -24.424698 -1.985657 5.953444
									CHANNELS 3 Xrotation Yrotation Zrotation
									JOINT RightHandIndex2
									{
										OFFSET -6.426697 0.000000 0.000000
										CHANNELS 3 Xrotation Yrotation Zrotation
										JOINT RightHandIndex3
										{
											OFFSET -5.337898 0.000000 0.000000
											CHANNELS 3 Xrotation Yrotation Zrotation
											JOINT RightHandIndex4
											{
												OFFSET -4.409401 0.000000 0.000000
												CHANNELS 3 Xrotation Yrotation Zrotation
												End Site
												{
													OFFSET 0.000000 4.409363 0.014408
												}
											}
										}
									}
								}
								JOINT RightHandMiddle1
								{
									OFFSET -23.810097 0.000000 0.000000
									CHANNELS 3 Xrotation Yrotation Zrotation
									JOINT RightHandMiddle2
									{
										OFFSET -7.176498 0.000000 0.000000
										CHANNELS 3 Xrotation Yrotation Zrotation
										JOINT RightHandMiddle3
										{
											OFFSET -6.774902 0.000000 0.000000
											CHANNELS 3 Xrotation Yrotation Zrotation
											JOINT RightHandMiddle4
											{
												OFFSET -5.403328 0.000000 0.000000
												CHANNELS 3 Xrotation Yrotation Zrotation
												End Site
												{
													OFFSET 0.027702 5.403244 0.017457
												}
											}
										}
									}
								}
								JOINT RightHandRing1
								{
									OFFSET -22.908302 -0.839325 -6.020576
									CHANNELS 3 Xrotation Yrotation Zrotation
									JOINT RightHandRing2
									{
										OFFSET -6.337502 0.000000 0.000000
										CHANNELS 3 Xrotation Yrotation Zrotation
										JOINT RightHandRing3
										{
											OFFSET -5.779297 0.000000 0.000000
											CHANNELS 3 Xrotation Yrotation Zrotation
											JOINT RightHandRing4
											{
												OFFSET -4.965698 0.000000 0.000000
												CHANNELS 3 Xrotation Yrotation Zrotation
												End Site
												{
													OFFSET 0.000000 4.965668 0.016226
												}
											}
										}
									}
								}
								JOINT RightHandPinky1
								{
									OFFSET -20.037003 -1.530334 -10.950259
									CHANNELS 3 Xrotation Yrotation Zrotation
									JOINT RightHandPinky2
									{
										OFFSET -5.254700 0.000000 0.000000
										CHANNELS 3 Xrotation Yrotation Zrotation
										JOINT RightHandPinky3
										{
											OFFSET -4.810204 0.000000 0.000000
											CHANNELS 3 Xrotation Yrotation Zrotation
											JOINT RightHandPinky4
											{
												OFFSET -3.647202 0.000000 0.000000
												CHANNELS 3 Xrotation Yrotation Zrotation
												End Site
												{
													OFFSET 0.000000 3.647186 0.011917
												}
											}
										}
									}
								}
							}
						}
					}
				}
			}
		}
	}
	JOINT LeftUpLeg
	{
		OFFSET 15.427100 -6.655098 0.678600
		CHANNELS 3 Xrotation Yrotation Zrotation
		JOINT LeftLeg
		{
			OFFSET 4.081073 -39.591068 13.024000
			CHANNELS 3 Xrotation Yrotation Zrotation
			JOINT LeftFoot
			{
				OFFSET -4.081074 -37.707932 -15.979700
				CHANNELS 3 Xrotation Yrotation Zrotation
				JOINT LeftToeBase
				{
					OFFSET 5.346399 -15.068900 20.645000
					CHANNELS 3 Xrotation Yrotation Zrotation
					JOINT LeftToe_End
					{
						OFFSET 2.754700 0.931300 11.300900
						CHANNELS 3 Xrotation Yrotation Zrotation
						End Site
						{
							OFFSET 0.000000 11.669021 0.000000
						}
					}
				}
			}
		}
	}
	JOINT RightUpLeg
	{
		OFFSET -15.569500 -6.655098 0.678600
		CHANNELS 3 Xrotation Yrotation Zrotation
		JOINT RightLeg
		{
			OFFSET -4.081825 -39.591045 13.023800
			CHANNELS 3 Xrotation Yrotation Zrotation
			JOINT RightFoot
			{
				OFFSET 4.081824 -37.707954 -15.979600
				CHANNELS 3 Xrotation Yrotation Zrotation
				JOINT RightToeBase
				{
					OFFSET -5.346400 -15.068900 20.645000
					CHANNELS 3 Xrotation Yrotation Zrotation
					JOINT RightToe_End
					{
						OFFSET -2.754700 0.931300 11.300900
						CHANNELS 3 Xrotation Yrotation Zrotation
						End Site
						{
							OFFSET 0.000000 11.669021 0.000000
						}
					}
				}
			}
		}
	}
}
MOTION
Frames: 4
Frame Time: 0.033333
1.998049 94.692856 -0.777025 -0.892879 1.396636 -5.500349 1.300941 -1.198379 3.155226 0.728743 0.264195 5.944688 0.710790 0.781493 5.852000 1.045307 -0.304693 -2.163987 1.584931 0.544178 -8.140494 0.000000 -0.000000 0.000000 3.582357 -13.764039 -5.044455 4.032783 3.514252 -83.678328 0.000000 -14.506746 -0.000015 -27.592521 3.698840 -9.416240 18.491284 -0.461432 10.916072 1.284041 32.757608 -3.088937 2.117157 9.311163 -0.358678 -0.000000 0.000004 0.000000 0.339569 4.671358 -7.844287 0.387031 2.823577 -20.566212 0.034633 0.816838 -10.169820 0.000002 0.000000 -0.000002 0.912584 8.769268 -15.831745 0.919072 3.991136 -33.400434 0.170578 1.488888 -12.264429 0.000000 0.000001 -0.000000 2.555820 11.673031 -26.909187 1.710650 3.886786 -40.215457 0.544858 1.835073 -19.344154 0.000001 0.000000 0.000000 5.576073 16.029170 -36.940638 1.378690 4.077644 -45.645635 0.486590 2.853390 -20.524727 0.000000 0.000000 -0.000000 4.508128 3.324372 5.471572 -1.219628 0.655871 67.345412 0.000006 17.736789 -0.000013 -11.193157 -9.123240 10.139283 18.491284 0.461445 -10.916066 1.284075 -32.757611 3.088942 2.008710 -8.430474 1.114719 -0.000001 -0.000001 -0.000002 0.339565 -4.671353 7.844308 0.387029 -2.823578 20.566207 -0.193126 -0.216347 13.843942 0.000000 0.000000 -0.000004 0.912582 -8.769263 15.831733 0.919076 -3.991134 33.400428 0.216468 -1.688832 15.898064 -0.000000 -0.000000 -0.000000 2.555816 -11.673027 26.909197 1.710649 -3.886786 40.215454 -0.157956 0.035275 17.815351 0.000001 -0.000000 -0.000000 5.576072 -16.029168 36.940651 1.378688 -4.077648 45.645618 -0.727747 -0.247555 22.122739 -0.000001 -0.000000 0.000001 -17.242883 10.910601 17.843056 21.221172 8.460473 2.059149 -2.358846 4.173645 -10.927323 -0.432837 0.000007 -0.000001 -0.000000 0.000000 -0.000000 1.129587 -4.297630 10.254356 10.324225 -4.637735 3.783913 -10.484556 0.532460 -7.620887 -0.521734 -0.000005 -0.000003 0.000000 -0.000000 -0.000000 
1.417559 94.413567 -0.175530 -0.895209 4.146130 -5.518744 1.202111 -0.735701 3.262011 0.709350 0.717632 5.835116 0.726248 1.233332 5.735944 0.767550 -1.162770 -2.282823 1.307567 -1.269417 -7.858115 -0.000000 -0.000000 -0.000000 3.603872 -13.589131 -5.412469 4.121767 4.074875 -83.367984 0.000003 -13.936234 0.000032 -27.288293 3.059738 -10.247468 18.394254 -1.083843 11.101367 1.279723 33.103683 -3.073532 2.137853 9.419182 -0.455160 -0.000000 0.000005 0.000000 0.355536 4.791952 -8.716081 0.385380 2.819168 -20.519528 0.033964 0.812157 -10.123210 -0.000001 -0.000000 -0.000000 0.964223 8.879943 -16.437632 0.919359 3.991591 -33.405899 0.170728 1.489490 -12.270645 -0.000000 -0.000001 0.000003 2.602511 11.682950 -27.426090 1.708662 3.884847 -40.187576 0.543666 1.832502 -19.315597 0.000001 0.000000 0.000000 5.707864 16.100778 -37.435782 1.372725 4.070733 -45.554698 0.482859 2.845063 -20.434036 -0.000000 0.000000 -0.000000 4.488078 3.499391 5.245302 -0.879573 0.571277 67.668426 -0.000004 17.593220 0.000006 -11.101939 -9.396085 10.121440 18.526507 0.373884 -10.904194 1.300150 -32.699497 3.069165 2.013271 -8.442769 1.119128 -0.000000 0.000000 -0.000000 0.344526 -4.673229 7.756467 0.386830 -2.823045 20.560568 -0.193148 -0.215757 13.838281 -0.000000 0.000000 -0.000003 0.908357 -8.764944 15.740280 0.918919 -3.990894 33.397549 0.216393 -1.688567 15.895317 -0.000000 -0.000001 0.000001 2.554890 -11.682262 26.846552 1.711333 -3.887445 40.224985 -0.157864 0.034258 17.825300 -0.000000 -0.000000 -0.000000 5.582119 -16.058442 36.867514 1.378762 -4.077728 45.646745 -0.727750 -0.247686 22.123867 -0.000001 -0.000000 -0.000000 -18.166027 10.591168 17.976766 21.680813 6.938812 2.048945 -2.367140 2.993267 -10.670622 -0.386560 -0.000007 0.000001 0.000000 0.000000 -0.000000 2.343347 -5.000369 10.091061 10.525409 -7.811091 4.335559 -11.792231 1.976990 -7.058583 -0.521743 -0.000009 -0.000001 0.000000 0.000000 0.000000 
0.822488 94.174973 0.253042 -0.899557 6.739796 -5.528087 1.112274 -0.275756 3.341960 0.693219 1.186478 5.713923 0.746614 1.700328 5.607664 0.502491 -1.918962 -2.430235 0.997901 -2.905652 -7.631072 -0.000000 0.000000 -0.000000 3.626832 -13.421901 -5.758544 4.191273 4.739866 -83.055326 -0.000001 -13.565736 -0.000021 -27.047220 2.247902 -10.946976 18.270920 -1.709684 11.311012 1.273814 33.431857 -3.054691 2.149159 9.520634 -0.499117 -0.000000 -0.000003 -0.000001 0.370342 4.897789 -9.504464 0.383787 2.814938 -20.474675 0.033333 0.807649 -10.078367 -0.000000 0.000001 -0.000001 1.011793 8.977771 -16.980509 0.919785 3.992250 -33.413678 0.170924 1.490302 -12.279076 -0.000002 0.000002 0.000001 2.645724 11.694290 -27.891183 1.706953 3.883194 -40.163828 0.542650 1.830311 -19.291275 0.000001 -0.000001 0.000000 5.824561 16.157654 -37.883613 1.367178 4.064277 -45.469925 0.479391 2.837300 -20.349481 -0.000000 0.000001 0.000002 4.467557 3.691333 5.014749 -0.495907 0.463078 68.003296 -0.000002 17.409975 0.000016 -10.965584 -9.733262 10.127451 18.572264 0.294626 -10.882079 1.309784 -32.640094 3.043333 2.018303 -8.456308 1.123974 -0.000004 0.000001 -0.000002 0.350335 -4.677791 7.669894 0.386634 -2.822525 20.555027 -0.193167 -0.215185 13.832781 -0.000000 0.000001 -0.000002 0.904270 -8.761225 15.647888 0.918758 -3.990637 33.394499 0.216312 -1.688284 15.892389 -0.000000 0.000000 0.000002 2.554261 -11.692193 26.783928 1.711863 -3.887959 40.232420 -0.157785 0.033459 17.833170 0.000001 -0.000000 0.000000 5.588826 -16.088939 36.794212 1.378811 -4.077785 45.647510 -0.727757 -0.247771 22.124612 0.000001 -0.000001 -0.000001 -19.074034 10.245423 18.086182 22.004663 5.651919 2.040016 -2.175281 1.887450 -10.442077 -0.364980 -0.000000 -0.000001 -0.000000 -0.000000 -0.000000 3.287554 -5.752186 10.408189 10.504463 -9.011825 4.787702 -12.749327 1.617289 -7.260857 -0.520913 -0.000000 0.000005 0.000000 -0.000000 -0.000000 
0.215510 93.982071 0.472652 -0.906068 9.288045 -5.514128 1.047825 0.180114 3.356081 0.685828 1.700578 5.567410 0.780478 2.211889 5.452503 0.264221 -2.434140 -2.635897 0.613680 -4.146283 -7.507239 0.000000 -0.000001 -0.000000 3.645602 -13.295757 -6.059191 4.216872 5.643893 -82.749975 -0.000003 -13.711891 -0.000029 -26.897515 1.025197 -11.374238 18.074646 -2.326239 11.570643 1.263648 33.714189 -3.026430 2.135453 9.602899 -0.408585 -0.000001 0.000001 0.000001 0.377329 4.966797 -10.075214 0.382461 2.811359 -20.436899 0.032799 0.803871 -10.040729 -0.000002 0.000000 -0.000002 1.039358 9.025386 -17.351648 0.920686 3.993666 -33.430491 0.171336 1.491951 -12.296046 0.000002 -0.000001 -0.000001 2.673382 11.697039 -28.215013 1.706272 3.882532 -40.154201 0.542230 1.829400 -19.281117 -0.000001 -0.000001 -0.000000 5.898309 16.174994 -38.214604 1.362936 4.059344 -45.405175 0.476746 2.831362 -20.284888 -0.000001 0.000002 -0.000000 4.446609 3.900769 4.793746 -0.003275 0.282217 68.339669 0.000000 17.132339 0.000000 -10.744925 -10.208517 10.176010 18.646963 0.236586 -10.831899 1.301287 -32.576034 3.000484 2.024278 -8.472367 1.129717 -0.000000 0.000002 0.000002 0.358604 -4.689658 7.583931 0.386418 -2.821952 20.548984 -0.193190 -0.214555 13.826760 -0.000001 0.000001 -0.000002 0.900244 -8.758501 15.549404 0.918549 -3.990299 33.390483 0.216205 -1.687909 15.888533 0.000000 -0.000002 -0.000001 2.554055 -11.703712 26.718085 1.712054 -3.888142 40.235084 -0.157759 0.033122 17.836339 -0.000001 -0.000000 -0.000000 5.597502 -16.122175 36.722847 1.378982 -4.077972 45.649986 -0.727766 -0.248043 22.127054 0.000001 -0.000001 -0.000000 -20.041428 9.824126 18.069004 22.134437 4.392201 2.067696 -1.698717 0.796237 -10.175152 -0.473471 0.000009 0.000001 -0.000000 0.000000 0.000000 3.916591 -6.428969 11.029564 10.320284 -8.988079 5.111793 -13.420237 -0.033575 -8.007620 -0.520915 -0.000001 -0.000002 0.000000 0.000000 -0.000000 
